<svg id="Logo" xmlns="http://www.w3.org/2000/svg" xmlns:xlink="http://www.w3.org/1999/xlink" width="496.50872mm" height="100mm" viewBox="0 0 1407.42629 283.46457">
  <defs>
    <radialGradient id="radial-gradient" cx="132.19337" cy="125.1496" r="41.90097" gradientTransform="translate(0.00195)" gradientUnits="userSpaceOnUse">
      <stop offset="0" stop-color="#4896d2"/>
      <stop offset="1" stop-color="#1a2165"/>
    </radialGradient>
    <linearGradient id="linear-gradient" x1="41.2266" y1="121.70678" x2="111.69673" y2="13.1923" gradientTransform="matrix(1, 0, 0, 1, 0, 0)" xlink:href="#radial-gradient"/>
    <linearGradient id="linear-gradient-2" x1="69.35488" y1="-3.35431" x2="244.41279" y2="67.37367" gradientTransform="matrix(1, 0, 0, 1, 0, 0)" xlink:href="#radial-gradient"/>
    <linearGradient id="linear-gradient-3" x1="-12.00954" y1="-4989.41211" x2="58.45786" y2="-5097.92239" gradientTransform="translate(4489.4795 -2266.33546) rotate(-120.00073)" xlink:href="#radial-gradient"/>
    <linearGradient id="linear-gradient-4" x1="16.11309" y1="-5114.46916" x2="191.18821" y2="-5043.73422" gradientTransform="translate(4489.4795 -2266.33546) rotate(-120.00073)" xlink:href="#radial-gradient"/>
    <linearGradient id="linear-gradient-5" x1="4441.20353" y1="-2480.17491" x2="4511.67523" y2="-2588.69181" gradientTransform="translate(282.08385 -5021.48462) rotate(120.00073)" xlink:href="#radial-gradient"/>
    <linearGradient id="linear-gradient-6" x1="4469.33108" y1="-2605.23774" x2="4644.39901" y2="-2534.50571" gradientTransform="translate(282.08385 -5021.48462) rotate(120.00073)" xlink:href="#radial-gradient"/>
  </defs>
  <g>
    <g>
      <path d="M161.67063,119.6322a29.76378,29.76378,0,1,0,2.18138,42.0493A29.78707,29.78707,0,0,0,161.67063,119.6322Z" fill="url(#radial-gradient)"/>
      <path d="M56.48461,28.5019a142.21063,142.21063,0,0,0-44.8625,56.9749c11.7774,2.903,47.0392,14.3789,63.217,58.0582,4.8662-1.5854,15.3555-7.6988,22.6329-31.3003,9.7589-31.5986,28.272-61.9911,52.2799-72.1966C125.81121,16.3521,94.26791,10.7751,56.48461,28.5019Z" fill="url(#linear-gradient)"/>
      <path d="M250.88341,51.3498l.0066-.0078A141.72164,141.72164,0,0,0,56.484,28.5022c52.4526-24.6098,92.8779-4.3082,117.6334,47.0071C213.54981,82.5817,240.33,62.9608,250.88341,51.3498Z" fill="url(#linear-gradient-2)"/>
      <path d="M86.31411,272.163a142.193,142.193,0,0,0,71.769,10.3678c-3.375-11.6518-11.0684-47.93,18.6672-83.7815-3.806-3.4214-14.3447-9.4494-38.4213-3.9518-32.2423,7.3471-67.8175,6.5094-88.6586-9.1811C41.12981,218.1944,52.07191,248.3027,86.31411,272.163Z" fill="url(#linear-gradient-3)"/>
      <path d="M8.9,92.3708l-.0103-.0016a141.74517,141.74517,0,0,0,77.4247,179.7941c-47.5371-33.1241-50.1694-78.287-18.1105-125.3856C54.61191,109.0893,24.23131,95.7055,8.9,92.3708Z" fill="url(#linear-gradient-4)"/>
      <path d="M282.39881,124.4972A142.222,142.222,0,0,0,255.492,57.1545c-8.4024,8.7488-35.9708,33.5511-81.8842,25.723-1.0598,5.0071-1.0108,17.1484,15.7884,35.2523,22.4837,24.2516,39.5455,55.4818,36.3787,81.3778C258.25651,190.6156,278.85781,166.0846,282.39881,124.4972Z" fill="url(#linear-gradient-5)"/>
      <path d="M165.41381,281.4415l.0038.0097a141.74138,141.74138,0,0,0,116.9812-156.9546c-4.9154,57.7338-42.7084,82.5952-99.5229,78.3784C157.03551,233.4911,160.63591,266.4958,165.41381,281.4415Z" fill="url(#linear-gradient-6)"/>
    </g>
    <g>
      <path d="M375.03228,216.44831h-32.0229V67.01181h51.4473a99.654,99.654,0,0,1,25.4062,2.98908,54.58186,54.58186,0,0,1,19.3189,9.074,39.60755,39.60755,0,0,1,12.27449,15.58457q4.27065,9.49912,4.2724,22.30762a54.55624,54.55624,0,0,1-4.37848,22.41662,43.951,43.951,0,0,1-12.70131,16.54387,58.00133,58.00133,0,0,1-20.2806,10.24741,95.1277,95.1277,0,0,1-26.8974,3.52218h-16.4386Zm-.6415-74.9316h17.5065q14.51355,0,22.6288-5.65795,8.1093-5.65015,8.11111-17.61146,0-12.59419-7.89981-17.82406-7.8969-5.22805-22.6285-5.231h-17.7181Z" fill="#3a3a39"/>
      <path d="M552.64487,219.01119a83.51,83.51,0,0,1-29.5664-5.01646,62.33373,62.33373,0,0,1-22.9491-14.83758A66.503,66.503,0,0,1,485.292,174.925q-5.2329-14.40948-5.2285-33.19353,0-18.784,5.4429-33.19633a68.95154,68.95154,0,0,1,15.0494-24.22931,62.69615,62.69615,0,0,1,22.7378-14.83728,79.19077,79.19077,0,0,1,28.4982-5.01646q17.29155,0,30.8491,5.33706a61.77287,61.77287,0,0,1,22.8408,15.26088,66.48023,66.48023,0,0,1,14.199,24.3383,99.96627,99.96627,0,0,1,4.907,32.34314q0,19.8504-5.443,34.47682a64.72531,64.72531,0,0,1-15.1552,24.12261,61.06257,61.06257,0,0,1-22.8432,14.09049A85.83483,85.83483,0,0,1,552.64487,219.01119Zm1.06832-28.18067a36.8662,36.8662,0,0,0,14.94348-2.989,30.83252,30.83252,0,0,0,11.7422-9.07413,43.28006,43.28006,0,0,0,7.5789-15.26047,78.60667,78.60667,0,0,0,2.6687-21.77543q0-25.40544-10.674-37.2538-10.6797-11.8448-28.1807-11.848a37.11626,37.11626,0,0,0-14.8374,2.989,32.38813,32.38813,0,0,0-12.0604,9.074,43.60055,43.60055,0,0,0-8.0055,15.36948,73.30318,73.30318,0,0,0-2.8832,21.66932,68.34655,68.34655,0,0,0,3.0951,21.77543,44.2545,44.2545,0,0,0,8.432,15.26047,33.579,33.579,0,0,0,12.5954,9.07413A40.51084,40.51084,0,0,0,553.71319,190.83052Z" fill="#3a3a39"/>
      <path d="M768.04737,210.53006q-2.9955,1.48934-6.51118,2.96827a62.99573,62.99573,0,0,1-8.32612,2.75658,80.88894,80.88894,0,0,1-11.098,2.01469,125.51626,125.51626,0,0,1-14.4141.74159,93.311,93.311,0,0,1-31.0611-4.91066,65.41344,65.41344,0,0,1-23.9084-14.41079,64.015,64.015,0,0,1-15.3702-23.58721q-5.44545-14.09148-5.4458-32.44933,0-19.21545,5.4458-34.05043a64.10468,64.10468,0,0,1,40.5613-40.028,99.3532,99.3532,0,0,1,32.9857-5.12266,102.63435,102.63435,0,0,1,21.88092,2.13329A77.95233,77.95233,0,0,1,768.477,71.49548l-7.04978,26.89808A79.34567,79.34567,0,0,0,747.552,94.97749a83.23693,83.23693,0,0,0-12.169-1.06539,68.598,68.598,0,0,0-20.1689,2.78047,40.67639,40.67639,0,0,0-15.58788,8.66553,39.56038,39.56038,0,0,0-10.14172,14.97668q-3.6306,9.09984-3.6249,21.50283,0,23.74945,13.3434,35.73221,13.3332,11.98056,35.968,11.98111a67.25531,67.25531,0,0,0,12.381-1.38849,65.78137,65.78137,0,0,0,14.0935-4.37537Z" fill="#3a3a39"/>
      <path d="M889.72546,183.78707H832.29927l-10.674,32.66124h-31.5934l51.02339-149.4365h41.6268l50.38253,149.4365h-32.6644Zm-48.6702-28.17977h39.9202l-19.854-62.76339Z" fill="#3a3a39"/>
      <path d="M1005.86679,216.44831h-32.0232V96.47188h-42.4853V67.01181h116.7765V96.47188h-42.268Z" fill="#3a3a39"/>
      <path d="M1135.65979,219.01119a83.533,83.533,0,0,1-29.5665-5.01646,62.291,62.291,0,0,1-22.9459-14.83758,66.4585,66.4585,0,0,1-14.8381-24.23211q-5.23665-14.40948-5.2341-33.19353,0-18.784,5.4461-33.19633a69.03133,69.03133,0,0,1,15.049-24.22931,62.68527,62.68527,0,0,1,22.735-14.83728,79.24344,79.24344,0,0,1,28.5013-5.01646q17.2908,0,30.8489,5.33706a61.777,61.777,0,0,1,22.8433,15.26088,66.54731,66.54731,0,0,1,14.1961,24.3383,99.871,99.871,0,0,1,4.9076,32.34314q0,19.8504-5.4397,34.47682a64.73662,64.73662,0,0,1-15.1587,24.12261,61.11144,61.11144,0,0,1-22.843,14.09049A85.83551,85.83551,0,0,1,1135.65979,219.01119Zm1.0707-28.18067a36.8621,36.8621,0,0,0,14.941-2.989,30.77542,30.77542,0,0,0,11.7391-9.07413,43.28176,43.28176,0,0,0,7.582-15.26047,78.51955,78.51955,0,0,0,2.6688-21.77543q0-25.40544-10.6747-37.2538-10.674-11.8448-28.1801-11.848a37.13033,37.13033,0,0,0-14.838,2.989,32.38586,32.38586,0,0,0-12.0597,9.074,43.50477,43.50477,0,0,0-8.0059,15.36948,73.21547,73.21547,0,0,0-2.8807,21.66932,68.36,68.36,0,0,0,3.092,21.77543,44.26977,44.26977,0,0,0,8.4358,15.26047,33.498,33.498,0,0,0,12.5926,9.07413A40.48769,40.48769,0,0,0,1136.73049,190.83052Z" fill="#3a3a39"/>
      <path d="M1407.42629,216.44831h-32.2352l-8.1142-99.2693-30.7405,99.2693h-30.5283l-30.3166-98.8397-8.1086,98.8397h-32.2352l14.9407-149.4365h38.2136l33.7293,112.7181,33.3059-112.7181h36.9308Z" fill="#3a3a39"/>
    </g>
  </g>
</svg>
